<?xml version="1.0" encoding="utf-8"?>
<!-- Generator: Adobe Illustrator 28.1.0, SVG Export Plug-In . SVG Version: 6.00 Build 0)  -->
<svg version="1.1" id="th_color" xmlns="http://www.w3.org/2000/svg" xmlns:xlink="http://www.w3.org/1999/xlink" x="0px" y="0px"
	 viewBox="0 0 26 26" style="enable-background:new 0 0 26 26;" xml:space="preserve">
<style type="text/css">
	.st0{fill:none;stroke:#304050;stroke-linecap:round;stroke-linejoin:round;}
	.st1{opacity:0.5;fill:none;stroke:#304050;stroke-linecap:round;stroke-linejoin:round;}
</style>
<polygon class="st0" points="13,11.3 13.8,12.9 15.5,13.1 14.3,14.4 14.5,16.1 13,15.3 11.5,16.1 11.7,14.4 10.5,13.1 12.2,12.9 "/>
<polygon class="st1" points="19.8,11.3 20.6,12.9 22.3,13.1 21.1,14.4 21.3,16.1 19.8,15.3 18.3,16.1 18.5,14.4 17.3,13.1 19,12.9 
	"/>
<polygon class="st0" points="6.2,11.3 7,12.9 8.7,13.1 7.5,14.4 7.7,16.1 6.2,15.3 4.7,16.1 4.9,14.4 3.7,13.1 5.4,12.9 "/>
</svg>
