<?xml version="1.0" encoding="utf-8"?>
<!-- Generator: Adobe Illustrator 28.1.0, SVG Export Plug-In . SVG Version: 6.00 Build 0)  -->
<svg version="1.1" id="Layer_4" xmlns="http://www.w3.org/2000/svg" xmlns:xlink="http://www.w3.org/1999/xlink" x="0px" y="0px"
	 viewBox="0 0 26 26" style="enable-background:new 0 0 26 26;" xml:space="preserve">
<style type="text/css">
	.st0{opacity:0.5;fill:none;stroke:#ffffff;stroke-width:1.5;stroke-linecap:round;stroke-linejoin:round;}
	.st1{fill:none;stroke:#ffffff;stroke-width:1.5;stroke-linecap:round;stroke-linejoin:round;}
	.st2{fill:#ffffff;}
</style>
<path class="st0" d="M5,11.5V5V11.5z"/>
<path class="st1" d="M13,12c0,0,6.4,0,8,0c0-1,0-2,0-3H5c0,1,0,2,0,3c3.8,0,1,0,1,0"/>
<polyline class="st1" points="21,12 21,21 5,21 5,12 "/>
<path class="st0" d="M21,11.5V5V11.5z"/>
<path class="st2" d="M13.4,14.8l-4-4C9.3,10.7,9,10.8,9,11v5.4c0,0.1,0.1,0.2,0.2,0.2s0.1,0,0.1-0.1l1.1-0.9l0.9,2
	c0,0,0,0.1,0.1,0.3h0.2l0.9-0.6c0.1,0,0.1-0.1,0.1-0.2L11.8,15h1.4c0.1,0.1,0.2,0,0.2-0.1C13.4,14.9,13.4,14.8,13.4,14.8z"/>
<path class="st1" d="M13.9,12.1"/>
</svg>
